<svg id="Layer_1" data-name="Layer 1" xmlns="http://www.w3.org/2000/svg" viewBox="0 0 26.38 29.02"><defs><style>.cls-1{fill:#782e85;}.cls-2{fill:#fcfcfc;}</style></defs><title>29_viber</title><path class="cls-1" d="M25.14,46.51c0-1.74,0-3.48,0-5.22,0-.32,0-.59-.41-.73a7.81,7.81,0,0,1-5.5-6.47,23.89,23.89,0,0,1,.22-10c.82-3.46,3.2-5.27,6.52-6a27.29,27.29,0,0,1,8.41-.48,25.46,25.46,0,0,1,4.27.66,7.84,7.84,0,0,1,6.18,6.83,26.22,26.22,0,0,1-.13,9.39,7.16,7.16,0,0,1-3.47,5.22,14.14,14.14,0,0,1-4.72,1.44,27.6,27.6,0,0,1-6,.34,1,1,0,0,0-.89.37c-1.4,1.37-2.66,2.87-4,4.31C25.5,46.3,25.42,46.51,25.14,46.51Zm11.25-8.19c1.39.07,3.35-1.67,3.41-2.92a1.2,1.2,0,0,0-.44-1A20.92,20.92,0,0,0,37,32.67c-1.42-1-2-.92-3.06.43a1,1,0,0,1-1.26.41,7.33,7.33,0,0,1-4.27-3.83c-.57-1.22-.46-1.57.61-2.43a1.36,1.36,0,0,0,.5-1.79,8.51,8.51,0,0,0-1.44-2.1c-1.38-1.75-1.55-1.76-3.45-.63l-.07,0a2,2,0,0,0-1.09,2.74A19.93,19.93,0,0,0,27.28,32a25.77,25.77,0,0,0,3.36,3.25,21.65,21.65,0,0,0,4.41,2.53C35.53,38,35.94,38.4,36.39,38.32Zm3.26-8.8a7.79,7.79,0,0,0-3-6.2A8.28,8.28,0,0,0,32,21.69c-.34,0-.68,0-.71.45s.29.52.65.51h.44A6.68,6.68,0,0,1,38,26.38a6.41,6.41,0,0,1,.71,3.26c0,.42.17.8.52.8s.43-.46.45-.81Zm-2-.9a5.05,5.05,0,0,0-4.83-4.93c-.35,0-.74-.13-.78.39s.3.48.64.52a4.84,4.84,0,0,1,2.4.86,4.19,4.19,0,0,1,1.67,3.44c0,.34.07.77.4.77s.54-.42.51-.83A1.62,1.62,0,0,1,37.63,28.62Zm-1.93-.38a2.57,2.57,0,0,0-2.35-2.56c-.32,0-.69-.07-.76.36s.28.66.64.74c1.1.25,1.37.48,1.56,1.54.05.33.12.6.51.57S35.72,28.55,35.7,28.24Z" transform="translate(-18.81 -17.49)"/><path class="cls-2" d="M36.39,38.32c-.45.08-.86-.28-1.34-.51a21.65,21.65,0,0,1-4.41-2.53A25.77,25.77,0,0,1,27.28,32a19.93,19.93,0,0,1-3.78-6.52,2,2,0,0,1,1.09-2.74l.07,0c1.9-1.13,2.07-1.12,3.45.63a8.51,8.51,0,0,1,1.44,2.1,1.36,1.36,0,0,1-.5,1.79c-1.07.86-1.18,1.21-.61,2.43a7.33,7.33,0,0,0,4.27,3.83A1,1,0,0,0,34,33.1c1-1.35,1.64-1.39,3.06-.43a20.92,20.92,0,0,1,2.33,1.76,1.2,1.2,0,0,1,.44,1C39.74,36.65,37.78,38.39,36.39,38.32Z" transform="translate(-18.81 -17.49)"/><path class="cls-2" d="M39.65,29.52v.11c0,.35-.07.8-.45.81s-.53-.38-.52-.8A6.41,6.41,0,0,0,38,26.38a6.68,6.68,0,0,0-5.55-3.72H32c-.36,0-.68-.1-.65-.51s.37-.46.71-.45a8.28,8.28,0,0,1,4.64,1.63A7.79,7.79,0,0,1,39.65,29.52Z" transform="translate(-18.81 -17.49)"/><path class="cls-2" d="M37.63,28.62a1.62,1.62,0,0,0,0,.22c0,.41-.11.82-.51.83s-.39-.43-.4-.77a4.19,4.19,0,0,0-1.67-3.44,4.84,4.84,0,0,0-2.4-.86c-.34,0-.68-.06-.64-.52s.43-.43.78-.39A5.05,5.05,0,0,1,37.63,28.62Z" transform="translate(-18.81 -17.49)"/><path class="cls-2" d="M35.71,28.24c0,.31,0,.62-.41.65s-.46-.24-.51-.57c-.19-1.06-.46-1.29-1.56-1.54-.36-.08-.71-.29-.64-.74s.44-.4.76-.36A2.59,2.59,0,0,1,35.71,28.24Z" transform="translate(-18.81 -17.49)"/></svg>