<svg id="Layer_1" data-name="Layer 1" xmlns="http://www.w3.org/2000/svg" viewBox="0 0 33.26 33.53"><defs><style>.cls-1{fill:#4fa254;}.cls-2{fill:#fff;}</style></defs><title>30_whatsUp</title><path class="cls-1" d="M40.36,35.5a.65.65,0,0,1,.42.73,5.14,5.14,0,0,1-.41,1.64,2.07,2.07,0,0,1-.65.76,5.05,5.05,0,0,1-1.74.93,1.23,1.23,0,0,1-.32.07l.86-.43a2.54,2.54,0,0,0,1.39-2,2.3,2.3,0,0,0-1-2.36,3,3,0,0,0-1.23-.42,3.91,3.91,0,0,0-1.8.22l-.22,0c.21-.26.43-.51.64-.78a.53.53,0,0,1,.67-.2,5.82,5.82,0,0,1,1.15.56c.18.11.38.18.57.28.56.29,1.11.6,1.67.9Z" transform="translate(-15.37 -15.24)"/><path class="cls-1" d="M32.32,36.48a.57.57,0,0,1,.35-.36c.28-.14.57-.26.85-.39.07,0,.15-.07.18-.16l.4.18a.58.58,0,0,0,.68-.13l.83-.9.22,0a3.91,3.91,0,0,1,1.8-.22,3,3,0,0,1,1.23.42,2.3,2.3,0,0,1,1,2.36,2.54,2.54,0,0,1-1.39,2l-.86.43a5,5,0,0,1-3.27-.47c0-.16-.21-.2-.32-.29a7,7,0,0,1-1.64-1.74A.84.84,0,0,1,32.32,36.48Z" transform="translate(-15.37 -15.24)"/><path class="cls-1" d="M26.73,31.63a4.22,4.22,0,0,1-2-1.88,3.9,3.9,0,0,1-.45-1.64,4.26,4.26,0,0,1,.25-1.81,2.63,2.63,0,0,1,2-1.76,2.16,2.16,0,0,1,1.82.49,2.78,2.78,0,0,1,1,1.91,4.64,4.64,0,0,1-.15,2,1,1,0,0,0,0,.24,4.57,4.57,0,0,1-.43.45c-.33.29-.48.45-.18,1a2.69,2.69,0,0,0-.34.47,2,2,0,0,1-.47.5A1,1,0,0,1,26.73,31.63Z" transform="translate(-15.37 -15.24)"/><path class="cls-1" d="M25.74,32a11.22,11.22,0,0,1-1.3-2.56,5.16,5.16,0,0,1,.08-3.67A5,5,0,0,1,25.85,24a1.65,1.65,0,0,1,1.44-.34,1.84,1.84,0,0,0,.41,0,.73.73,0,0,1,.75.45,8.26,8.26,0,0,1,.36.94l.65,1.74c.1.29.21.57.32.86a.7.7,0,0,1,0,.55,2.82,2.82,0,0,1-.67,1,1,1,0,0,1,0-.24,4.64,4.64,0,0,0,.15-2,2.78,2.78,0,0,0-1-1.91,2.16,2.16,0,0,0-1.82-.49,2.63,2.63,0,0,0-2,1.76,4.26,4.26,0,0,0-.25,1.81,3.9,3.9,0,0,0,.45,1.64,4.22,4.22,0,0,0,2,1.88,1,1,0,0,0,1-.05,2,2,0,0,0,.47-.5,2.69,2.69,0,0,1,.34-.47,15.06,15.06,0,0,0,1.37,2A10.64,10.64,0,0,0,33,35.18l.7.39c0,.09-.11.12-.18.16-.28.13-.57.25-.85.39a.57.57,0,0,0-.35.36.84.84,0,0,0,.11.65,7,7,0,0,0,1.64,1.74c.11.09.28.13.32.29-.64-.22-1.27-.49-1.89-.77a13.18,13.18,0,0,1-4.09-3A22.32,22.32,0,0,1,25.74,32Z" transform="translate(-15.37 -15.24)"/><path class="cls-1" d="M20.45,45.26c.19.41,0,.71-.36,1a2.42,2.42,0,0,1-1.46.59,1.14,1.14,0,0,1-1-.41,1.41,1.41,0,0,1-.15-1.57,2.36,2.36,0,0,1,.6-.84.76.76,0,0,1,.69-.18,1.66,1.66,0,0,1,.85.49v.07s0,.09,0,.12.08,0,.12,0l.16,0c0,.17.2.24.29.38A2.45,2.45,0,0,1,20.45,45.26Z" transform="translate(-15.37 -15.24)"/><path class="cls-1" d="M20,44.47,24.71,43A.26.26,0,0,1,25,43,13.57,13.57,0,0,0,44,38.42,13,13,0,0,0,45.62,29a13.6,13.6,0,0,0-16.3-10.66,13.24,13.24,0,0,0-5.81,2.9A13.57,13.57,0,0,0,21.2,39.4a.3.3,0,0,1,.05.3q-.63,1.81-1.23,3.63c-.12.34-.22.69-.36,1a1.66,1.66,0,0,0-.85-.49.76.76,0,0,0-.69.18,2.36,2.36,0,0,0-.6.84,1.41,1.41,0,0,0,.15,1.57,1.14,1.14,0,0,0,1,.41,2.42,2.42,0,0,0,1.46-.59c.35-.31.55-.61.36-1a2.45,2.45,0,0,0-.24-.38c-.09-.14-.25-.21-.29-.38C19.94,44.49,20,44.47,20,44.47Zm4.27,1.46-8.69,2.78-.18,0,1-3q.91-2.73,1.84-5.46a.56.56,0,0,0-.06-.53,16.35,16.35,0,0,1,10.15-24,16.11,16.11,0,0,1,7.21-.16A16.33,16.33,0,0,1,48.24,28.1a16.34,16.34,0,0,1-10.1,18.72A16.33,16.33,0,0,1,24.56,46,.36.36,0,0,0,24.24,45.93Z" transform="translate(-15.37 -15.24)"/><path class="cls-2" d="M24.44,29.4A11.22,11.22,0,0,0,25.74,32a22.32,22.32,0,0,0,2.67,3.46,13.18,13.18,0,0,0,4.09,3c.62.28,1.25.55,1.89.77a5,5,0,0,0,3.27.47,1.23,1.23,0,0,0,.32-.07,5.05,5.05,0,0,0,1.74-.93,2.07,2.07,0,0,0,.65-.76,5.14,5.14,0,0,0,.41-1.64.65.65,0,0,0-.42-.73l0,0c-.56-.3-1.11-.61-1.67-.9-.19-.1-.39-.17-.57-.28a5.82,5.82,0,0,0-1.15-.56.53.53,0,0,0-.67.2c-.21.27-.43.52-.64.78l-.83.9a.58.58,0,0,1-.68.13l-.4-.18-.7-.39a10.64,10.64,0,0,1-3.13-2.57,15.06,15.06,0,0,1-1.37-2c-.3-.57-.15-.73.18-1a4.57,4.57,0,0,0,.43-.45,2.82,2.82,0,0,0,.67-1,.7.7,0,0,0,0-.55c-.11-.29-.22-.57-.32-.86L28.81,25a8.26,8.26,0,0,0-.36-.94.73.73,0,0,0-.75-.45,1.84,1.84,0,0,1-.41,0,1.65,1.65,0,0,0-1.44.34,5,5,0,0,0-1.33,1.78A5.16,5.16,0,0,0,24.44,29.4Zm-3.24,10a13.57,13.57,0,0,1,2.31-18.19A13.53,13.53,0,0,1,39,19.75,13.2,13.2,0,0,1,45.62,29,13,13,0,0,1,44,38.42,13.57,13.57,0,0,1,25,43a.26.26,0,0,0-.24,0L20,44.47s0,0,0,0l-.16,0s-.09.05-.12,0,0-.08,0-.12v-.07c.14-.34.24-.69.36-1q.6-1.81,1.23-3.63A.3.3,0,0,0,21.2,39.4Z" transform="translate(-15.37 -15.24)"/></svg>