<svg id="Layer_1" data-name="Layer 1" xmlns="http://www.w3.org/2000/svg" xmlns:xlink="http://www.w3.org/1999/xlink" viewBox="0 0 31.3 31.3"><defs><style>.cls-1{fill:url(#linear-gradient);}.cls-2{fill:#fff;}.cls-3{fill:#cddeea;}.cls-4{fill:#b1c8dc;}</style><linearGradient id="linear-gradient" x1="32" y1="16.35" x2="32" y2="47.54" gradientTransform="translate(3.84 -3.42) rotate(6.51)" gradientUnits="userSpaceOnUse"><stop offset="0" stop-color="#71bee5"/><stop offset="1" stop-color="#60a7d9"/></linearGradient></defs><title>31_telegram</title><circle class="cls-1" cx="32" cy="32" r="15.65" transform="translate(-19.77 -12.51) rotate(-6.51)"/><path class="cls-2" d="M39.62,25.35l-2.8,14.1a1,1,0,0,1-1.47.5L28.9,35l-2.34-1.13-3.95-1.33s-.61-.22-.67-.69.69-.72.69-.72L38.33,25S39.62,24.41,39.62,25.35Z" transform="translate(-16.35 -16.35)"/><path class="cls-3" d="M28.41,39.29s-.19,0-.43-.76l-1.42-4.65,9.48-6s.55-.33.53,0c0,0,.09.06-.2.34l-7.45,6.7" transform="translate(-16.35 -16.35)"/><path class="cls-4" d="M31.38,36.91l-2.56,2.32a.44.44,0,0,1-.41.06L28.9,35" transform="translate(-16.35 -16.35)"/></svg>