<svg id="Layer_1" data-name="Layer 1" xmlns="http://www.w3.org/2000/svg" viewBox="0 0 392.03 173.03"><defs><style>.cls-1{fill:#b9b3d4;}.cls-2{fill:#204656;}.cls-3{fill:#483186;}.cls-4{fill:#4b275c;}.cls-5{fill:#61285d;}.cls-6{fill:#3e301a;}.cls-7{fill:#211d4d;}.cls-8{fill:#2a4857;}.cls-9{fill:#46295e;}.cls-10{fill:#423489;}.cls-11{fill:#1e4b4d;}.cls-12{fill:#24415e;}.cls-13{fill:#3e3386;}.cls-14{fill:#23204f;}.cls-15{fill:#258290;}.cls-16{fill:#7088b3;}.cls-17{fill:#687c96;}.cls-18{fill:#5966a7;}.cls-19{fill:#cec8de;}.cls-20{fill:#e2d1c7;}.cls-21{fill:#edddc7;}.cls-22{fill:#6b769b;}.cls-23{fill:#4c2754;}.cls-24{fill:#f2dbcb;}.cls-25{fill:#cececc;}.cls-26{fill:#e9e7eb;}.cls-27{fill:#d8c6bd;}.cls-28{fill:#cab1ab;}.cls-29{fill:#91caca;}.cls-30{fill:#264a4b;}.cls-31{fill:#90b6cb;}.cls-32{fill:#bdc1c5;}.cls-33{fill:#b5a1bb;}.cls-34{fill:#bbb8c8;}.cls-35{fill:#93aaad;}.cls-36{fill:#b59576;}.cls-37{fill:#69706b;}.cls-38{fill:#526093;}.cls-39{fill:#5264a5;}.cls-40{fill:#6e7b98;}.cls-41{fill:#6d89b2;}.cls-42{fill:#757898;}.cls-43{fill:#6370ad;}.cls-44{fill:#1e9ec1;}.cls-45{fill:#6c88b2;}.cls-46{fill:#617bb4;}.cls-47{fill:#267f8e;}.cls-48{fill:#a693c0;}.cls-49{fill:#737799;}.cls-50{fill:#4571ae;}.cls-51{fill:#7b517e;}.cls-52{fill:#849596;}.cls-53{fill:#5463a6;}.cls-54{fill:#6573ae;}.cls-55{fill:#96aaaa;}.cls-56{fill:#8eb8c4;}.cls-57{fill:#60a4b3;}.cls-58{fill:#2297ae;}.cls-59{fill:#edd5e5;}.cls-60{fill:#a093c2;}.cls-61{fill:#f8f1c7;}.cls-62{fill:#6c88af;}.cls-63{fill:#79c1cc;}.cls-64{fill:#3497ae;}.cls-65{fill:#6671ae;}.cls-66{fill:#5261a5;}.cls-67{fill:#e3eaeb;}.cls-68{fill:#cdd5d3;}.cls-69{fill:#8ab7c1;}.cls-70{fill:#90bac1;}.cls-71{fill:#dfd2cd;}.cls-72{fill:#7e9fcb;}.cls-73{fill:#95abb0;}.cls-74{fill:#a99ac5;}.cls-75{fill:#f5f1c6;}.cls-76{fill:#839499;}.cls-77{fill:#d9eadc;}.cls-78{fill:#225559;}.cls-79{fill:#abd7e3;}.cls-80{fill:#cae2ee;}.cls-81{fill:#97c9ce;}.cls-82{fill:#a4bece;}.cls-83{fill:#e2d5e8;}.cls-84{fill:#e7eaea;}.cls-85{fill:#e3d2ca;}.cls-86{fill:#bcb3d2;}.cls-87{fill:#cfd2d1;}.cls-88{fill:#cbccd7;}.cls-89{fill:#b7ced9;}.cls-90{fill:#b0cadd;}.cls-91{fill:#89c2c7;}.cls-92{fill:#d3c7bc;}.cls-93{fill:#6e7998;}.cls-94{fill:#80a1c8;}.cls-95{fill:#e5d7e7;}.cls-96{fill:#d5eaef;}.cls-97{fill:#cde1ef;}.cls-98{fill:#555553;}.cls-99{fill:#6f4d43;}.cls-100{fill:#4f5e76;}.cls-101{fill:#493287;}.cls-102{fill:#8ec4c8;}.cls-103{fill:#46275b;}.cls-104{fill:#3f2c1b;}.cls-105{fill:#dbebd7;}.cls-106{fill:#ebe8ee;}.cls-107{fill:#b4cdda;}.cls-108{fill:#d4cfce;}.cls-109{fill:#d0c6c0;}.cls-110{fill:#c6b4a7;}.cls-111{fill:#a2d2dd;}.cls-112{fill:#cfc7dd;}.cls-113{fill:#abb8c7;}.cls-114{fill:#e4d2c8;}.cls-115{fill:#bab1d4;}.cls-116{fill:#a7b8c6;}.cls-117{fill:#219ccf;}.cls-118{fill:#69a3b5;}.cls-119{fill:#7288b4;}.cls-120{fill:#859fc8;}.cls-121{fill:#98aab4;}.cls-122{fill:#7f9496;}.cls-123{fill:#8aa5bc;}.cls-124{fill:#d2e3e7;}.cls-125{fill:#cbd0d3;}.cls-126{fill:#d3d4d4;}.cls-127{fill:#c3b7a7;}.cls-128{fill:#b3bcc4;}.cls-129{fill:#9cb2d2;}.cls-130{fill:#5ba6ca;}.cls-131{fill:#2b567f;}.cls-132{fill:#556baa;}.cls-133{fill:#d7e9d7;}.cls-134{fill:#f4f5dd;}.cls-135{fill:#f5f2cb;}.cls-136{fill:#ced3d2;}.cls-137{fill:#b0b7c6;}.cls-138{fill:#a9baca;}.cls-139{fill:#c5b4a6;}.cls-140{fill:#a69ac5;}.cls-141{fill:#97abae;}.cls-142{fill:#bdb2d1;}.cls-143{fill:#adbbc6;}.cls-144{fill:#b49fb4;}.cls-145{fill:#baa0b6;}.cls-146{fill:#cec4dd;}.cls-147{fill:#cdd3d4;}.cls-148{fill:#a8d5dd;}.cls-149{fill:#a9cada;}.cls-150{fill:#e6e1eb;}.cls-151{fill:#efdec8;}.cls-152{fill:#5362a5;}.cls-153{fill:#526095;}.cls-154{fill:#6a8ab0;}.cls-155{fill:#899cc9;}.cls-156{fill:#be9cb6;}.cls-157{fill:#a2d2d8;}.cls-158{fill:#cdc9e2;}.cls-159{fill:#234750;}.cls-160{fill:#425d7f;}.cls-161{fill:#432c58;}.cls-162{fill:#afb6c6;}.cls-163{fill:#5f8178;}.cls-164{fill:#412d5b;}.cls-165{fill:#232051;}.cls-166{fill:#682a5b;}.cls-167{fill:#d2e6d7;}.cls-168{fill:#8eb8c3;}.cls-169{fill:#cdc7de;}.cls-170{fill:#248f93;}.cls-171{fill:#9dcfd3;}.cls-172{fill:#4d5356;}.cls-173{fill:#2a5a7d;}.cls-174{fill:#a493c0;}.cls-175{fill:#88a5bc;}.cls-176{fill:#26808f;}.cls-177{fill:#bbb3d2;}.cls-178{fill:#4e2860;}.cls-179{fill:#482556;}.cls-180{fill:#3b484a;}.cls-181{fill:#223f58;}.cls-182{fill:#22535c;}.cls-183{fill:#231f4f;}.cls-184{fill:#ccd3d1;}.cls-185{fill:#e7dfc6;}.cls-186{fill:#f2f0c3;}.cls-187{fill:#aed7db;}.cls-188{fill:#fff;}</style></defs><title>WolfPromotorLogo_5</title><polygon class="cls-1" points="63.98 156.15 64.09 30.79 61.76 22.33 59.09 30.67 55.38 23.37 48.96 25.33 38.16 15.1 27.81 2.57 24.59 0 17.54 6.6 15.43 14.13 13.02 24.15 12.09 32.71 13.42 39.25 10.98 40.06 14.7 42.49 9.68 47.81 18.84 53.97 7.94 55.04 16.88 60.49 5.04 60.49 13.02 65.39 3.34 74.29 11.13 71.33 1.59 79.08 10.98 79.63 0.33 84.2 11.46 86.76 0 97.14 9.2 96.03 3.62 122.2 15.86 115.52 7.71 127.04 15.86 127.94 13.96 136.91 20.11 135.91 15.94 145.68 27.01 145.48 33.12 155.86 35.78 150.68 37.2 147.9 43.28 161.75 48.11 152.41 57.36 167.87 63.98 156.15"/><polygon class="cls-1" points="64.27 156.15 64.16 30.79 66.49 22.33 69.16 30.67 72.87 23.37 79.29 25.33 90.31 14.78 100.66 2.24 103.66 0 110.71 6.6 112.82 14.13 115.23 24.15 116.16 32.71 114.83 39.25 117.27 40.06 113.55 42.49 118.57 47.81 109.41 53.97 120.31 55.04 111.37 60.49 123.21 60.49 115.23 65.39 124.91 74.29 117.12 71.33 126.66 79.08 117.27 79.63 127.92 84.2 116.79 86.76 128.25 97.14 119.05 96.03 124.63 122.2 112.39 115.52 120.54 127.04 112.39 127.94 114.28 136.91 108.14 135.91 112.31 145.68 101.24 145.48 95.13 155.86 92.47 150.68 91.05 147.9 84.97 161.75 80.14 152.41 70.89 167.87 64.27 156.15"/><path class="cls-2" d="M153,138.82l-10.69,10.27c5.22-.31,10-1.64,13.73-5.19C156.19,141.79,155.11,140.11,153,138.82Z" transform="translate(-103.99 -113.49)"/><polygon class="cls-3" points="48.96 25.33 42.51 25.33 38.28 35.61 48.96 25.33"/><path class="cls-4" d="M153,138.82l-3.64-3.64q-3.12,1.83-2.82,3.64Z" transform="translate(-103.99 -113.49)"/><polygon class="cls-5" points="42.51 25.33 45.33 21.7 39.54 21.48 42.51 25.33"/><path class="cls-6" d="M149.31,135.18l-5.78-.22a11.45,11.45,0,0,1-1-6.82Z" transform="translate(-103.99 -113.49)"/><path class="cls-7" d="M143.53,135l-8.05-9c2.46-.72,4.82-.23,7,2.19Z" transform="translate(-103.99 -113.49)"/><path class="cls-8" d="M142.49,128.14l-7-8a14.44,14.44,0,0,0,0,5.86Z" transform="translate(-103.99 -113.49)"/><path class="cls-9" d="M135.48,120.09c-1.85-1.24-3.95-.91-6.2.26l6.2,5.6Z" transform="translate(-103.99 -113.49)"/><polygon class="cls-10" points="31.49 6.6 28.15 2.11 24.07 5.82 25.3 6.86 31.49 6.6"/><path class="cls-11" d="M132.14,115.6l-3.56-2.11c-1.6,1.92-1.79,3.86-.52,5.82Z" transform="translate(-103.99 -113.49)"/><path class="cls-12" d="M128.58,113.49l-.52,5.82c-2.38,1.76-4.61,2.37-6.53.78Z" transform="translate(-103.99 -113.49)"/><polygon class="cls-13" points="17.54 6.6 24.07 5.82 20.1 9.2 17.54 6.6"/><polygon class="cls-14" points="17.54 6.6 15.43 14.13 20.1 9.2 17.54 6.6"/><polygon class="cls-15" points="15.43 14.13 31.19 21.7 20.1 9.2 15.43 14.13"/><polygon class="cls-16" points="20.1 9.2 24.07 5.82 31.19 21.7 20.1 9.2"/><path class="cls-17" d="M135.18,135.18l-7.12-15.87,7.42,6.64A10.79,10.79,0,0,1,135.18,135.18Z" transform="translate(-103.99 -113.49)"/><polygon class="cls-18" points="31.49 12.46 31.19 21.7 39.54 21.48 31.49 12.46"/><polygon class="cls-19" points="39.54 21.48 38.28 35.61 42.51 25.33 39.54 21.48"/><polygon class="cls-20" points="39.54 21.48 31.19 21.7 38.28 35.61 39.54 21.48"/><polygon class="cls-21" points="31.19 21.7 25.32 27.98 38.28 35.61 31.19 21.7"/><polygon class="cls-22" points="31.19 21.7 15.43 14.13 20.29 26.67 31.19 21.7"/><polygon class="cls-23" points="31.19 21.7 20.29 26.67 25.32 27.98 31.19 21.7"/><polygon class="cls-24" points="15.43 14.13 13.02 24.15 20.29 26.67 15.43 14.13"/><polygon class="cls-25" points="13.02 24.15 12.09 32.71 19.21 37.05 13.02 24.15"/><polygon class="cls-26" points="13.02 24.15 20.29 26.67 19.21 37.05 13.02 24.15"/><polygon class="cls-27" points="20.29 26.67 19.21 37.05 25.32 38.83 20.29 26.67"/><polygon class="cls-28" points="20.29 26.67 25.32 38.83 25.32 27.98 20.29 26.67"/><polygon class="cls-29" points="25.32 27.98 38.28 35.61 30.53 43.51 25.32 27.98"/><polygon class="cls-30" points="25.32 27.98 25.32 38.83 30.53 43.51 25.32 27.98"/><polygon class="cls-31" points="12.09 32.71 13.42 39.25 19.21 37.05 12.09 32.71"/><polygon class="cls-32" points="19.21 37.05 20.92 41.65 10.98 40.06 19.21 37.05"/><polygon class="cls-33" points="10.98 40.06 23.26 48.11 20.92 41.65 10.98 40.06"/><polygon class="cls-34" points="19.21 37.05 25.32 38.83 23.26 48.11 19.21 37.05"/><polygon class="cls-35" points="25.32 38.83 23.26 48.11 30.53 43.51 25.32 38.83"/><polygon class="cls-36" points="14.7 42.49 9.68 47.81 23.26 48.11 14.7 42.49"/><polygon class="cls-37" points="23.26 48.11 9.68 47.81 18.84 53.97 23.26 48.11"/><path class="cls-38" d="M122.83,167.45c.65,2.07,0,4.2-2,6.38l-8.94-5.3Z" transform="translate(-103.99 -113.49)"/><path class="cls-39" d="M134.51,157l7.75-7.9,14.25,18.6C147.58,164.9,139.8,161.54,134.51,157Z" transform="translate(-103.99 -113.49)"/><polygon class="cls-40" points="30.53 43.51 23.26 48.11 52.52 54.21 30.53 43.51"/><polygon class="cls-41" points="23.26 48.11 38.5 51.22 33.38 63.76 23.26 48.11"/><path class="cls-42" d="M127.24,161.59l-4.41,5.86c2.25,2.23,5,1.82,8-.24Z" transform="translate(-103.99 -113.49)"/><polygon class="cls-43" points="18.84 53.97 26.89 53.73 16.88 60.35 18.84 53.97"/><polygon class="cls-44" points="16.88 60.35 26.89 53.73 33.38 63.76 16.88 60.35"/><polygon class="cls-45" points="16.88 60.35 33.38 63.76 31.8 72.07 16.88 60.35"/><polygon class="cls-46" points="13.02 65.39 16.88 60.35 31.8 72.07 13.02 65.39"/><polygon class="cls-47" points="16.88 60.35 5.04 60.35 13.02 65.39 16.88 60.35"/><polygon class="cls-48" points="13.02 65.39 31.8 72.07 10.98 71.33 13.02 65.39"/><polygon class="cls-49" points="13.02 65.39 3.34 74.29 10.98 71.33 13.02 65.39"/><path class="cls-50" d="M115,184.81l20.81.74c-6.41,4.28-13.23,7.21-20.81,7.57C113.13,190.53,113.34,187.74,115,184.81Z" transform="translate(-103.99 -113.49)"/><polygon class="cls-51" points="10.98 71.33 1.45 79.08 10.98 79.63 10.98 71.33"/><polygon class="cls-52" points="10.98 79.63 11.46 86.76 0.33 84.2 10.98 79.63"/><path class="cls-53" d="M115,193.12l.48,7.12A57.47,57.47,0,0,0,136.37,186l-.59-.45Z" transform="translate(-103.99 -113.49)"/><polygon class="cls-54" points="11.46 86.76 32.38 72.51 28.04 83.19 11.46 86.76"/><polygon class="cls-55" points="11.46 86.76 28.04 83.19 26.41 91.73 11.46 86.76"/><polygon class="cls-56" points="11.46 86.76 0 97.14 9.2 96.03 11.46 86.76"/><polygon class="cls-57" points="11.46 86.76 9.2 96.03 17.64 92.65 11.46 86.76"/><polygon class="cls-58" points="11.46 86.76 19.27 89.35 17.64 92.65 11.46 86.76"/><polygon class="cls-59" points="19.27 89.35 17.64 92.65 26.41 91.73 19.27 89.35"/><polygon class="cls-60" points="17.64 92.65 9.2 96.03 17.64 102.28 17.64 92.65"/><polygon class="cls-61" points="17.64 92.65 26.41 91.73 17.64 102.28 17.64 92.65"/><polygon class="cls-62" points="9.2 96.03 11.79 106.56 17.64 102.28 9.2 96.03"/><polygon class="cls-63" points="9.2 96.03 3.62 122.2 11.79 106.56 9.2 96.03"/><polygon class="cls-64" points="11.79 106.56 3.62 122.2 15.86 115.52 11.79 106.56"/><path class="cls-65" d="M115.78,220.05l5.84-4.29A25.69,25.69,0,0,1,119.84,229Z" transform="translate(-103.99 -113.49)"/><polygon class="cls-66" points="17.64 102.28 28.43 107.73 15.86 115.52 17.64 102.28"/><polygon class="cls-67" points="17.64 102.28 26.41 91.73 32.03 96.78 17.64 102.28"/><polygon class="cls-68" points="17.64 102.28 32.03 96.78 28.43 107.73 17.64 102.28"/><polygon class="cls-69" points="26.41 91.73 28.04 83.19 32.03 96.78 26.41 91.73"/><polygon class="cls-70" points="28.04 83.19 30.27 77.72 36.02 87.2 28.04 83.19"/><polygon class="cls-71" points="28.04 83.19 32.03 96.78 36.02 87.2 28.04 83.19"/><polygon class="cls-72" points="30.27 77.72 32.38 72.51 36.76 79.23 30.27 77.72"/><polygon class="cls-73" points="30.27 77.72 36.76 79.23 36.02 87.2 30.27 77.72"/><polygon class="cls-74" points="36.76 79.23 40.5 88.91 36.02 87.2 36.76 79.23"/><polygon class="cls-75" points="32.38 72.51 40.87 74.37 36.76 79.23 32.38 72.51"/><polygon class="cls-76" points="31.8 72.07 33.38 63.76 37.2 69.29 32.38 72.51 31.8 72.07"/><polygon class="cls-77" points="32.38 72.51 37.2 69.29 40.87 74.37 32.38 72.51"/><polygon class="cls-78" points="52 30.41 55.38 23.37 48.96 25.33 52 30.41"/><polyline class="cls-79" points="36.76 79.23 41.45 80.36 40.5 88.91 36.76 79.23"/><polyline class="cls-80" points="45.29 75.48 41.45 80.36 46.98 84.97 45.29 75.48"/><polyline class="cls-81" points="41.45 80.36 40.5 88.91 43.79 90.68 41.45 80.36"/><polyline class="cls-82" points="41.45 80.36 43.79 90.68 46.98 84.97 41.45 80.36"/><polygon class="cls-83" points="36.02 87.2 39.13 93.09 40.5 88.91 36.02 87.2"/><polygon class="cls-84" points="36.02 87.2 32.03 96.78 39.13 93.09 36.02 87.2"/><polygon class="cls-85" points="32.03 96.78 28.43 107.73 40.56 110.12 32.03 96.78"/><polygon class="cls-86" points="32.03 96.78 40.56 110.12 43.56 103.28 32.03 96.78"/><polygon class="cls-87" points="32.03 96.78 43.79 90.68 43.56 103.28 32.03 96.78"/><polygon class="cls-88" points="39.13 93.09 40.5 88.91 43.79 90.68 39.13 93.09"/><path class="cls-89" d="M149.27,189" transform="translate(-103.99 -113.49)"/><polygon class="cls-90" points="33.38 63.76 44.23 67.23 37.2 69.29 33.38 63.76"/><polygon class="cls-91" points="33.38 63.76 44.23 67.23 38.26 62.44 33.38 63.76"/><path class="cls-92" d="M142.25,175.93l7-1.56,3.26,9.44c-.31.28-2.21-2.92-4.31-3.1Z" transform="translate(-103.99 -113.49)"/><polygon class="cls-93" points="38.5 51.22 33.38 63.76 45.29 60.88 38.5 51.22"/><polygon class="cls-94" points="38.5 51.22 52.52 54.21 45.29 60.88 38.5 51.22"/><polygon class="cls-95" points="45.29 60.88 52.52 54.21 57.53 60.88 45.29 60.88"/><path class="cls-96" d="M149.27,174.37h7.52L153.67,186a14,14,0,0,0-1.67-2.49Z" transform="translate(-103.99 -113.49)"/><polygon class="cls-97" points="52.8 60.88 49.68 72.51 57.08 72.51 52.8 60.88"/><path class="cls-98" d="M142.26,149.09,156,143.9a63,63,0,0,1,.52,23.79Z" transform="translate(-103.99 -113.49)"/><path class="cls-99" d="M156,143.9l3.37-7.05,3.71,7.42A5.46,5.46,0,0,1,156,143.9Z" transform="translate(-103.99 -113.49)"/><polygon class="cls-100" points="52 30.41 52.52 54.21 59.48 40.35 52 30.41"/><path class="cls-101" d="M163.07,144.16l2.67-8.35,2.4,8.35C166.44,145.79,164.75,145.8,163.07,144.16Z" transform="translate(-103.99 -113.49)"/><polygon class="cls-102" points="52.8 60.88 57.53 60.88 57.08 72.51 52.8 60.88"/><polygon class="cls-103" points="49.68 72.51 52.52 72.51 51.74 78.74 49.68 72.51"/><path class="cls-104" d="M153.67,186a7.86,7.86,0,0,1-4.4,3l6.46,3.26" transform="translate(-103.99 -113.49)"/><polygon class="cls-105" points="40.87 74.37 41.45 80.36 36.76 79.23 40.87 74.37"/><path class="cls-106" d="M144.86,187.85s2.58,2.25,4.41,1.12l-3.83,4.87Z" transform="translate(-103.99 -113.49)"/><polygon class="cls-107" points="46.98 84.97 45.29 75.48 51.74 78.74 46.98 84.97"/><polygon class="cls-108" points="51.74 78.74 52.52 72.51 57.08 72.51 51.74 78.74"/><polygon class="cls-20" points="51.74 78.74 46.98 84.97 57.5 88.2 51.74 78.74"/><polygon class="cls-109" points="46.98 84.97 43.79 90.68 57.5 88.2 46.98 84.97"/><polygon class="cls-110" points="43.79 90.68 57.5 88.2 43.56 103.28 43.79 90.68"/><polygon class="cls-111" points="43.56 103.28 57.5 88.2 53.69 105.67 43.56 103.28"/><polygon class="cls-112" points="40.56 110.12 43.56 103.28 43.37 113.68 40.56 110.12"/><polygon class="cls-113" points="40.56 110.12 39.31 113.68 28.43 107.73 40.56 110.12"/><polygon class="cls-114" points="39.31 113.68 28.43 107.73 27.98 117.22 39.31 113.68"/><polygon class="cls-115" points="28.43 107.73 15.86 115.52 27.98 117.22 28.43 107.73"/><polygon class="cls-116" points="15.86 115.52 27.98 117.22 26.26 129.09 15.86 115.52"/><path class="cls-117" d="M119.84,229l4.65,6.06c-2.88,3.23-7.5,4.69-12.8,5.45Z" transform="translate(-103.99 -113.49)"/><polygon class="cls-118" points="20.51 121.59 7.71 127.04 26.26 129.09 20.51 121.59"/><polygon class="cls-119" points="15.86 127.94 13.96 136.91 26.26 129.09 15.86 127.94"/><polygon class="cls-120" points="26.26 129.09 13.96 136.91 31.52 134.05 26.26 129.09"/><polygon class="cls-121" points="31.52 134.05 20.11 135.91 15.94 145.68 31.52 134.05"/><polygon class="cls-122" points="31.52 134.05 15.94 145.68 27.01 145.48 31.52 134.05"/><polygon class="cls-123" points="31.52 134.05 27.01 145.48 40.67 141.14 31.52 134.05"/><polygon class="cls-124" points="27.98 117.22 39.31 113.68 26.26 129.09 27.98 117.22"/><polygon class="cls-21" points="26.26 129.09 39.31 113.68 33.65 126.3 26.26 129.09"/><polygon class="cls-125" points="26.26 129.09 33.65 126.3 31.52 134.05 26.26 129.09"/><polygon class="cls-126" points="33.65 126.3 39.31 113.68 45.92 123.44 33.65 126.3"/><polygon class="cls-127" points="31.52 134.05 33.65 126.3 45.92 123.44 31.52 134.05"/><polygon class="cls-128" points="31.52 134.05 45.92 123.44 44.03 131.12 31.52 134.05"/><polygon class="cls-129" points="31.52 134.05 44.03 131.12 40.67 141.14 31.52 134.05"/><polygon class="cls-130" points="44.03 131.12 45.92 123.44 52.19 127.67 44.03 131.12"/><polygon class="cls-131" points="39.31 113.68 40.56 110.12 43.37 113.68 39.31 113.68"/><polygon class="cls-132" points="39.31 113.68 43.37 113.68 45.92 123.44 39.31 113.68"/><polygon class="cls-133" points="43.56 103.28 43.37 113.68 53.69 105.67 43.56 103.28"/><polygon class="cls-134" points="43.37 113.68 53.69 105.67 54.15 117.22 43.37 113.68"/><polygon class="cls-135" points="43.37 113.68 54.15 117.22 45.92 123.44 43.37 113.68"/><polygon class="cls-136" points="45.92 123.44 54.15 117.22 54.97 122.1 45.92 123.44"/><polygon class="cls-137" points="45.92 123.44 54.97 122.1 52.19 127.67 45.92 123.44"/><polygon class="cls-138" points="44.03 131.12 52.19 127.67 49 137.09 44.03 131.12"/><polygon class="cls-139" points="44.03 131.12 49 137.09 40.67 141.14 44.03 131.12"/><polygon class="cls-140" points="27.01 145.48 33.12 155.86 40.67 141.14 27.01 145.48"/><polygon class="cls-141" points="35.78 150.68 43.28 161.75 40.67 141.14 35.78 150.68"/><polygon class="cls-142" points="40.67 141.14 49 137.09 44.83 146.06 40.67 141.14"/><polygon class="cls-143" points="40.67 141.14 44.83 146.06 43.28 161.75 40.67 141.14"/><polygon class="cls-144" points="52.19 127.67 54.97 122.1 57.3 126.5 52.19 127.67"/><polygon class="cls-145" points="49 137.09 52.19 127.67 58.25 133.44 49 137.09"/><polygon class="cls-146" points="44.83 146.06 49 137.09 51.13 149.51 44.83 146.06"/><polygon class="cls-147" points="43.28 161.75 44.83 146.06 51.13 149.51 43.28 161.75"/><polygon class="cls-67" points="46.5 156.74 51.13 149.51 57.36 167.87 46.5 156.74"/><polygon class="cls-148" points="57.36 167.87 64.13 156.15 51.13 149.51 57.36 167.87"/><polygon class="cls-149" points="64.13 156.15 50.13 143.67 51.13 149.51 64.13 156.15"/><polygon class="cls-149" points="50.13 143.67 49 137.09 58.25 133.44 50.13 143.67"/><polygon class="cls-150" points="58.25 133.44 58.75 130.17 52.19 127.67 58.25 133.44"/><polygon class="cls-151" points="57.5 88.2 57.08 72.51 51.74 78.74 57.5 88.2"/><path class="cls-152" d="M161.51,174.37l-5-6.68q5.81-5.59,11.6-3.67C167.09,169,165,172.61,161.51,174.37Z" transform="translate(-103.99 -113.49)"/><polygon class="cls-153" points="52.47 54.21 64.15 30.67 64.2 50.54 52.47 54.21"/><polygon class="cls-154" points="57.53 60.88 64.13 65.08 57.08 72.51 57.53 60.88"/><path class="cls-155" d="M160.87,201.18" transform="translate(-103.99 -113.49)"/><polygon class="cls-155" points="57.08 72.51 64.13 82.08 57.5 88.2 57.08 72.51"/><polygon class="cls-156" points="57.5 88.2 64.13 101.5 53.69 105.67 57.5 88.2"/><polygon class="cls-157" points="53.69 105.67 60.18 103.11 53.89 110.71 53.69 105.67"/><polygon class="cls-158" points="57.85 105.93 60.18 103.11 64.13 105.93 57.85 105.93"/><path class="cls-159" d="M157.88,224.19l4-4.78a20.16,20.16,0,0,1,.41,11.71Z" transform="translate(-103.99 -113.49)"/><polygon class="cls-160" points="53.89 110.71 58.25 117.63 54.15 117.22 53.89 110.71"/><path class="cls-161" d="M158.14,230.7l4.1.42a4.52,4.52,0,0,1,3.78,3.21l-3,2.45Z" transform="translate(-103.99 -113.49)"/><polygon class="cls-162" points="54.15 117.22 59.01 123.3 54.97 122.1 54.15 117.22"/><polygon class="cls-163" points="54.97 122.1 64.13 124.89 57.3 126.5 54.97 122.1"/><path class="cls-164" d="M161.83,219.41l.29,8.25c1,.87,2.29.64,3.66,0C165.67,224.53,163.92,221.92,161.83,219.41Z" transform="translate(-103.99 -113.49)"/><path class="cls-165" d="M162.12,227.66l.12,3.46,3.78,3.21a11.1,11.1,0,0,0-.24-6.67Z" transform="translate(-103.99 -113.49)"/><path class="cls-166" d="M161.83,219.41l6.28,5.52a6.84,6.84,0,0,1-2.33,2.73Z" transform="translate(-103.99 -113.49)"/><polygon class="cls-167" points="58.25 133.44 58.75 130.17 64.39 130.17 64.39 133.44 58.25 133.44"/><polygon class="cls-168" points="58.25 133.44 64.04 137.55 57.75 140.78 58.25 133.44"/><polygon class="cls-1" points="58.25 133.44 57.75 140.78 50.13 143.67 58.25 133.44"/><polygon class="cls-169" points="50.13 143.67 57.75 140.78 64.13 156.15 50.13 143.67"/><path class="cls-165" d="M141.19,182.77" transform="translate(-103.99 -113.49)"/><path class="cls-165" d="M141.19,182.77s5.27-2.09,7-2.06c2.5,0,5.06,3.72,5.45,5.29C151.3,189.61,145.27,192,141.19,182.77Z" transform="translate(-103.99 -113.49)"/><circle class="cls-170" cx="44.42" cy="70.9" r="2.82"/><ellipse class="cls-171" cx="44.42" cy="71.34" rx="2.78" ry="2.37"/><circle class="cls-11" cx="44.97" cy="70.26" r="0.79"/><path class="cls-2" d="M183.28,138.82,194,149.09c-5.16,0-10-1-13.72-5.19C179.58,141.07,180.68,139.44,183.28,138.82Z" transform="translate(-103.99 -113.49)"/><polygon class="cls-3" points="79.29 25.33 85.74 25.33 89.97 35.61 79.29 25.33"/><path class="cls-4" d="M183.28,138.82l3.63-3.64c2.36,1.15,3.15,2.36,2.82,3.64Z" transform="translate(-103.99 -113.49)"/><polygon class="cls-5" points="85.74 25.33 82.92 21.7 88.71 21.48 85.74 25.33"/><path class="cls-6" d="M186.91,135.18l5.79-.22a8.15,8.15,0,0,0,1-6.82Z" transform="translate(-103.99 -113.49)"/><path class="cls-7" d="M192.7,135l8.05-9a6.18,6.18,0,0,0-7,2.19Z" transform="translate(-103.99 -113.49)"/><path class="cls-8" d="M193.74,128.14l7-8a6.56,6.56,0,0,1,0,5.86Z" transform="translate(-103.99 -113.49)"/><path class="cls-9" d="M200.75,120.09q2.4-1.7,6.19.26l-6.19,5.6Z" transform="translate(-103.99 -113.49)"/><polygon class="cls-10" points="96.76 6.6 100.1 2.11 104.18 5.82 102.95 6.86 96.76 6.6"/><path class="cls-11" d="M204.08,115.6l3.57-2.11a16.53,16.53,0,0,1,.51,5.82Z" transform="translate(-103.99 -113.49)"/><path class="cls-12" d="M207.65,113.49l.51,5.82c2.38,1,4.61,1.41,6.53.78Z" transform="translate(-103.99 -113.49)"/><polygon class="cls-13" points="110.71 6.6 104.18 5.82 108.15 9.2 110.71 6.6"/><polygon class="cls-14" points="110.71 6.6 112.82 14.13 108.15 9.2 110.71 6.6"/><path class="cls-15" d="M216.81,127.62c-4.55,4.32-10,6.45-15.77,7.56l11.09-12.5Z" transform="translate(-103.99 -113.49)"/><polygon class="cls-16" points="108.15 9.2 104.18 5.82 97.06 21.7 108.15 9.2"/><path class="cls-17" d="M201,135.18l7.12-15.87L200.75,126Q198.82,132.74,201,135.18Z" transform="translate(-103.99 -113.49)"/><polygon class="cls-18" points="96.76 12.46 97.06 21.7 88.71 21.48 96.76 12.46"/><polygon class="cls-19" points="88.71 21.48 89.97 35.61 85.74 25.33 88.71 21.48"/><polygon class="cls-20" points="88.71 21.48 97.06 21.7 89.97 35.61 88.71 21.48"/><polygon class="cls-21" points="97.06 21.7 102.94 27.98 89.97 35.61 97.06 21.7"/><polygon class="cls-22" points="97.06 21.7 112.82 14.13 107.96 26.67 97.06 21.7"/><polygon class="cls-23" points="97.06 21.7 107.96 26.67 102.94 27.98 97.06 21.7"/><polygon class="cls-24" points="112.82 14.13 115.23 24.15 107.96 26.67 112.82 14.13"/><polygon class="cls-25" points="115.23 24.15 116.16 32.71 109.04 37.05 115.23 24.15"/><polygon class="cls-26" points="115.23 24.15 107.96 26.67 109.04 37.05 115.23 24.15"/><polygon class="cls-27" points="107.96 26.67 109.04 37.05 102.94 38.83 107.96 26.67"/><polygon class="cls-28" points="107.96 26.67 102.94 38.83 102.94 27.98 107.96 26.67"/><polygon class="cls-29" points="102.94 27.98 89.97 35.61 97.72 43.51 102.94 27.98"/><polygon class="cls-30" points="102.94 27.98 102.94 38.83 97.72 43.51 102.94 27.98"/><polygon class="cls-31" points="116.16 32.71 114.83 39.25 109.04 37.05 116.16 32.71"/><polygon class="cls-32" points="109.04 37.05 107.33 41.65 117.27 40.06 109.04 37.05"/><polygon class="cls-33" points="117.27 40.06 104.99 48.11 107.33 41.65 117.27 40.06"/><polygon class="cls-34" points="109.04 37.05 102.94 38.83 104.99 48.11 109.04 37.05"/><polygon class="cls-35" points="102.94 38.83 104.99 48.11 97.72 43.51 102.94 38.83"/><polygon class="cls-36" points="113.55 42.49 118.57 47.81 104.99 48.11 113.55 42.49"/><polygon class="cls-37" points="104.99 48.11 118.57 47.81 109.41 53.97 104.99 48.11"/><path class="cls-38" d="M213.39,167.45a5.89,5.89,0,0,0,2,6.38l8.94-5.3Z" transform="translate(-103.99 -113.49)"/><path class="cls-39" d="M201.71,157l-7.75-7.9-14.24,18.6C189.31,164.47,197.77,161.08,201.71,157Z" transform="translate(-103.99 -113.49)"/><polygon class="cls-40" points="97.72 43.51 104.99 48.11 75.73 54.21 97.72 43.51"/><polygon class="cls-41" points="104.99 48.11 89.75 51.22 94.87 63.76 104.99 48.11"/><path class="cls-42" d="M209,161.59l4.41,5.86a23.15,23.15,0,0,1-8-.24Z" transform="translate(-103.99 -113.49)"/><polygon class="cls-43" points="109.41 53.97 101.36 53.73 111.37 60.35 109.41 53.97"/><polygon class="cls-44" points="111.37 60.35 101.36 53.73 94.87 63.76 111.37 60.35"/><polygon class="cls-45" points="111.37 60.35 94.87 63.76 96.45 72.07 111.37 60.35"/><polygon class="cls-46" points="115.23 65.39 111.37 60.35 96.45 72.07 115.23 65.39"/><polygon class="cls-47" points="111.37 60.35 123.21 60.35 115.23 65.39 111.37 60.35"/><polygon class="cls-48" points="115.23 65.39 96.45 72.07 117.27 71.33 115.23 65.39"/><polygon class="cls-49" points="115.23 65.39 124.91 74.29 117.27 71.33 115.23 65.39"/><path class="cls-50" d="M221.26,184.81l-20.82.74c7.28,4.52,14.27,7.33,20.82,7.57A14.68,14.68,0,0,0,221.26,184.81Z" transform="translate(-103.99 -113.49)"/><polygon class="cls-51" points="117.27 71.33 126.8 79.08 117.27 79.63 117.27 71.33"/><polygon class="cls-52" points="117.27 79.63 116.79 86.76 127.92 84.2 117.27 79.63"/><path class="cls-53" d="M221.26,193.12l-.48,7.12A46.14,46.14,0,0,1,199.86,186l.58-.45Z" transform="translate(-103.99 -113.49)"/><polygon class="cls-54" points="116.79 86.76 95.87 72.51 100.21 83.19 116.79 86.76"/><polygon class="cls-55" points="116.79 86.76 100.21 83.19 101.84 91.73 116.79 86.76"/><polygon class="cls-56" points="116.79 86.76 128.25 97.14 119.05 96.03 116.79 86.76"/><polygon class="cls-57" points="116.79 86.76 119.05 96.03 110.61 92.65 116.79 86.76"/><polygon class="cls-58" points="116.79 86.76 108.98 89.35 110.61 92.65 116.79 86.76"/><polygon class="cls-59" points="108.98 89.35 110.61 92.65 101.84 91.73 108.98 89.35"/><polygon class="cls-60" points="110.61 92.65 119.05 96.03 110.61 102.28 110.61 92.65"/><polygon class="cls-61" points="110.61 92.65 101.84 91.73 110.61 102.28 110.61 92.65"/><polygon class="cls-62" points="119.05 96.03 116.45 106.56 110.61 102.28 119.05 96.03"/><polygon class="cls-63" points="119.05 96.03 124.63 122.2 116.45 106.56 119.05 96.03"/><polygon class="cls-64" points="116.45 106.56 124.63 122.2 112.39 115.52 116.45 106.56"/><path class="cls-65" d="M220.44,220.05l-5.84-4.29c-1.52,4.75-.55,9.11,1.78,13.25Z" transform="translate(-103.99 -113.49)"/><polygon class="cls-66" points="110.61 102.28 99.82 107.73 112.39 115.52 110.61 102.28"/><polygon class="cls-67" points="110.61 102.28 101.84 91.73 96.22 96.78 110.61 102.28"/><polygon class="cls-68" points="110.61 102.28 96.22 96.78 99.82 107.73 110.61 102.28"/><polygon class="cls-69" points="101.84 91.73 100.21 83.19 96.22 96.78 101.84 91.73"/><polygon class="cls-70" points="100.21 83.19 97.98 77.72 92.23 87.2 100.21 83.19"/><polygon class="cls-71" points="100.21 83.19 96.22 96.78 92.23 87.2 100.21 83.19"/><polygon class="cls-72" points="97.98 77.72 95.87 72.51 91.49 79.23 97.98 77.72"/><polygon class="cls-73" points="97.98 77.72 91.49 79.23 92.23 87.2 97.98 77.72"/><polygon class="cls-74" points="91.49 79.23 87.75 88.91 92.23 87.2 91.49 79.23"/><polygon class="cls-75" points="95.87 72.51 87.38 74.37 91.49 79.23 95.87 72.51"/><polygon class="cls-76" points="96.45 72.07 94.87 63.76 91.05 69.29 95.87 72.51 96.45 72.07"/><polygon class="cls-77" points="95.87 72.51 91.05 69.29 87.38 74.37 95.87 72.51"/><polygon class="cls-78" points="76.25 30.41 72.87 23.37 79.29 25.33 76.25 30.41"/><polyline class="cls-79" points="91.49 79.23 86.8 80.36 87.75 88.91 91.49 79.23"/><polyline class="cls-80" points="82.96 75.48 86.8 80.36 81.27 84.97 82.96 75.48"/><polyline class="cls-81" points="86.8 80.36 87.75 88.91 84.46 90.68 86.8 80.36"/><polyline class="cls-82" points="86.8 80.36 84.46 90.68 81.27 84.97 86.8 80.36"/><polygon class="cls-83" points="92.23 87.2 89.12 93.09 87.75 88.91 92.23 87.2"/><polygon class="cls-84" points="92.23 87.2 96.22 96.78 89.12 93.09 92.23 87.2"/><polygon class="cls-85" points="96.22 96.78 99.82 107.73 87.69 110.12 96.22 96.78"/><polygon class="cls-86" points="96.22 96.78 87.69 110.12 84.69 103.28 96.22 96.78"/><polygon class="cls-87" points="96.22 96.78 84.46 90.68 84.69 103.28 96.22 96.78"/><polygon class="cls-88" points="89.12 93.09 87.75 88.91 84.46 90.68 89.12 93.09"/><path class="cls-89" d="M187,189" transform="translate(-103.99 -113.49)"/><polygon class="cls-90" points="94.87 63.76 84.02 67.23 91.05 69.29 94.87 63.76"/><polygon class="cls-91" points="94.87 63.76 84.02 67.23 89.99 62.44 94.87 63.76"/><path class="cls-92" d="M194,175.93l-7-1.56-3.26,9.44c.31.28,2.21-2.92,4.32-3.1Z" transform="translate(-103.99 -113.49)"/><polygon class="cls-93" points="89.75 51.22 94.87 63.76 82.96 60.88 89.75 51.22"/><polygon class="cls-94" points="89.75 51.22 75.73 54.21 82.96 60.88 89.75 51.22"/><polygon class="cls-95" points="82.96 60.88 75.73 54.21 70.72 60.88 82.96 60.88"/><path class="cls-96" d="M187,174.37h-7.51L182.55,186a14.72,14.72,0,0,1,1.67-2.49Z" transform="translate(-103.99 -113.49)"/><polygon class="cls-97" points="75.45 60.88 78.57 72.51 71.17 72.51 75.45 60.88"/><path class="cls-98" d="M194,149.09l-13.72-5.19c-1.83,7.21-1.75,15.26-.52,23.79Z" transform="translate(-103.99 -113.49)"/><path class="cls-99" d="M180.24,143.9l-3.38-7.05-3.71,7.42C175.4,145.94,177.77,145.67,180.24,143.9Z" transform="translate(-103.99 -113.49)"/><polygon class="cls-100" points="76.25 30.41 75.73 54.21 68.78 40.35 76.25 30.41"/><path class="cls-172" d="M180.24,143.9l-7.09.37a44.64,44.64,0,0,0-.39,9.57Z" transform="translate(-103.99 -113.49)"/><path class="cls-101" d="M173.15,144.16l-2.67-8.35-2.39,8.35C169.78,145.79,171.47,145.8,173.15,144.16Z" transform="translate(-103.99 -113.49)"/><polygon class="cls-173" points="69.16 30.67 64.13 30.67 68.78 40.24 69.16 30.67"/><polygon class="cls-102" points="75.45 60.88 70.72 60.88 71.17 72.51 75.45 60.88"/><polygon class="cls-103" points="78.57 72.51 75.73 72.51 76.51 78.74 78.57 72.51"/><path class="cls-104" d="M182.55,186a7.89,7.89,0,0,0,4.4,3l-6.46,3.26" transform="translate(-103.99 -113.49)"/><polygon class="cls-105" points="87.38 74.37 86.8 80.36 91.49 79.23 87.38 74.37"/><path class="cls-106" d="M191.36,187.85S188.78,190.1,187,189l3.84,4.87Z" transform="translate(-103.99 -113.49)"/><polygon class="cls-107" points="81.27 84.97 82.96 75.48 76.51 78.74 81.27 84.97"/><polygon class="cls-108" points="76.51 78.74 75.73 72.51 71.17 72.51 76.51 78.74"/><polygon class="cls-20" points="76.51 78.74 81.27 84.97 70.75 88.2 76.51 78.74"/><polygon class="cls-109" points="81.27 84.97 84.46 90.68 70.75 88.2 81.27 84.97"/><polygon class="cls-110" points="84.46 90.68 70.75 88.2 84.69 103.28 84.46 90.68"/><polygon class="cls-111" points="84.69 103.28 70.75 88.2 74.56 105.67 84.69 103.28"/><polygon class="cls-112" points="87.69 110.12 84.69 103.28 84.88 113.68 87.69 110.12"/><polygon class="cls-113" points="87.69 110.12 88.94 113.68 99.82 107.73 87.69 110.12"/><polygon class="cls-114" points="88.94 113.68 99.82 107.73 100.27 117.22 88.94 113.68"/><polygon class="cls-115" points="99.82 107.73 112.39 115.52 100.27 117.22 99.82 107.73"/><polygon class="cls-116" points="112.39 115.52 100.27 117.22 101.99 129.09 112.39 115.52"/><path class="cls-117" d="M216.38,229l-4.65,6.06c2.53,3.74,7.12,5.2,12.8,5.45Z" transform="translate(-103.99 -113.49)"/><polygon class="cls-118" points="107.74 121.59 120.54 127.04 101.99 129.09 107.74 121.59"/><polygon class="cls-119" points="112.39 127.94 114.28 136.91 101.99 129.09 112.39 127.94"/><polygon class="cls-120" points="101.99 129.09 114.28 136.91 96.73 134.05 101.99 129.09"/><polygon class="cls-121" points="96.73 134.05 108.14 135.91 112.31 145.68 96.73 134.05"/><polygon class="cls-122" points="96.73 134.05 112.31 145.68 101.24 145.48 96.73 134.05"/><polygon class="cls-123" points="96.73 134.05 101.24 145.48 87.58 141.14 96.73 134.05"/><polygon class="cls-124" points="100.27 117.22 88.94 113.68 101.99 129.09 100.27 117.22"/><polygon class="cls-21" points="101.99 129.09 88.94 113.68 94.6 126.3 101.99 129.09"/><polygon class="cls-125" points="101.99 129.09 94.6 126.3 96.73 134.05 101.99 129.09"/><polygon class="cls-126" points="94.6 126.3 88.94 113.68 82.33 123.44 94.6 126.3"/><polygon class="cls-127" points="96.73 134.05 94.6 126.3 82.33 123.44 96.73 134.05"/><polygon class="cls-128" points="96.73 134.05 82.33 123.44 84.22 131.12 96.73 134.05"/><polygon class="cls-129" points="96.73 134.05 84.22 131.12 87.58 141.14 96.73 134.05"/><polygon class="cls-130" points="84.22 131.12 82.33 123.44 76.06 127.67 84.22 131.12"/><polygon class="cls-131" points="88.94 113.68 87.69 110.12 84.88 113.68 88.94 113.68"/><polygon class="cls-132" points="88.94 113.68 84.88 113.68 82.33 123.44 88.94 113.68"/><polygon class="cls-133" points="84.69 103.28 84.88 113.68 74.56 105.67 84.69 103.28"/><polygon class="cls-134" points="84.88 113.68 74.56 105.67 74.1 117.22 84.88 113.68"/><polygon class="cls-135" points="84.88 113.68 74.1 117.22 82.33 123.44 84.88 113.68"/><polygon class="cls-136" points="82.33 123.44 74.1 117.22 73.28 122.1 82.33 123.44"/><polygon class="cls-137" points="82.33 123.44 73.28 122.1 76.06 127.67 82.33 123.44"/><polygon class="cls-138" points="84.22 131.12 76.06 127.67 79.25 137.09 84.22 131.12"/><polygon class="cls-139" points="84.22 131.12 79.25 137.09 87.58 141.14 84.22 131.12"/><polygon class="cls-140" points="101.24 145.48 95.13 155.86 87.58 141.14 101.24 145.48"/><polygon class="cls-141" points="92.47 150.68 84.97 161.75 87.58 141.14 92.47 150.68"/><polygon class="cls-142" points="87.58 141.14 79.25 137.09 83.42 146.06 87.58 141.14"/><polygon class="cls-143" points="87.58 141.14 83.42 146.06 84.97 161.75 87.58 141.14"/><polygon class="cls-144" points="76.06 127.67 73.28 122.1 70.95 126.5 76.06 127.67"/><polygon class="cls-145" points="79.25 137.09 76.06 127.67 70 133.44 79.25 137.09"/><polygon class="cls-146" points="83.42 146.06 79.25 137.09 77.12 149.51 83.42 146.06"/><polygon class="cls-147" points="84.97 161.75 83.42 146.06 77.12 149.51 84.97 161.75"/><polygon class="cls-67" points="81.75 156.74 77.12 149.51 70.89 167.87 81.75 156.74"/><polygon class="cls-148" points="70.89 167.87 64.13 156.15 77.12 149.51 70.89 167.87"/><polygon class="cls-149" points="64.13 156.15 78.12 143.67 77.12 149.51 64.13 156.15"/><polygon class="cls-149" points="78.12 143.67 79.25 137.09 70 133.44 78.12 143.67"/><polygon class="cls-150" points="70 133.44 69.5 130.17 76.06 127.67 70 133.44"/><polygon class="cls-151" points="70.75 88.2 71.17 72.51 76.51 78.74 70.75 88.2"/><path class="cls-152" d="M174.71,174.37l5-6.68q-4.23-4.16-11.61-3.67C168.81,168.8,170.38,172.81,174.71,174.37Z" transform="translate(-103.99 -113.49)"/><polygon class="cls-153" points="75.72 54.21 64.15 30.67 63.98 50.54 75.72 54.21"/><polygon class="cls-154" points="70.72 60.88 64.13 65.08 71.17 72.51 70.72 60.88"/><path class="cls-155" d="M175.35,201.18" transform="translate(-103.99 -113.49)"/><polygon class="cls-155" points="71.17 72.51 64.13 82.08 70.75 88.2 71.17 72.51"/><polygon class="cls-156" points="70.75 88.2 64.13 101.5 74.56 105.67 70.75 88.2"/><polygon class="cls-157" points="74.56 105.67 68.07 103.11 74.36 110.71 74.56 105.67"/><polygon class="cls-158" points="70.4 105.93 68.07 103.11 64.13 105.93 70.4 105.93"/><path class="cls-159" d="M178.35,224.19l-4-4.78a24.33,24.33,0,0,0-.4,11.71Z" transform="translate(-103.99 -113.49)"/><polygon class="cls-160" points="74.36 110.71 70 117.63 74.1 117.22 74.36 110.71"/><path class="cls-161" d="M178.08,230.7l-4.09.42a6.5,6.5,0,0,0-3.78,3.21l3,2.45Z" transform="translate(-103.99 -113.49)"/><polygon class="cls-162" points="74.1 117.22 69.24 123.3 73.28 122.1 74.1 117.22"/><path class="cls-164" d="M174.39,219.41l-.28,8.25c-1,.88-2.29.64-3.67,0C170.55,225.75,172.29,222.71,174.39,219.41Z" transform="translate(-103.99 -113.49)"/><polygon class="cls-163" points="73.28 122.1 64.13 124.89 70.95 126.5 73.28 122.1"/><path class="cls-165" d="M174.11,227.66l-.12,3.46-3.78,3.21a14.35,14.35,0,0,1,.23-6.67Z" transform="translate(-103.99 -113.49)"/><path class="cls-166" d="M174.39,219.41l-6.28,5.52a2.86,2.86,0,0,0,2.33,2.73Z" transform="translate(-103.99 -113.49)"/><polygon class="cls-167" points="70 133.44 69.5 130.17 63.86 130.17 63.86 133.44 70 133.44"/><polygon class="cls-168" points="70 133.44 64.04 137.55 70.5 140.78 70 133.44"/><polygon class="cls-1" points="70 133.44 70.5 140.78 78.12 143.67 70 133.44"/><polygon class="cls-169" points="78.12 143.67 70.5 140.78 64.13 156.15 78.12 143.67"/><path class="cls-165" d="M195,182.77" transform="translate(-103.99 -113.49)"/><path class="cls-165" d="M195,182.77s-5.26-2.09-7-2.06c-2.51,0-5.07,3.72-5.46,5.29C184.92,189.61,191,192,195,182.77Z" transform="translate(-103.99 -113.49)"/><circle class="cls-170" cx="83.83" cy="70.9" r="2.82"/><ellipse class="cls-171" cx="83.83" cy="71.34" rx="2.78" ry="2.37"/><circle class="cls-11" cx="83.28" cy="70.26" r="0.79"/><path class="cls-153" d="M156.45,167.69a14.71,14.71,0,0,1,11.8-3.67l11.46,3.67-11.6-23.53Z" transform="translate(-103.99 -113.49)"/><polygon class="cls-174" points="64.13 65.08 57.08 72.51 64.13 82.08 71.17 72.51 64.13 65.08"/><polygon class="cls-175" points="64.13 82.08 57.5 88.2 64.13 101.5 70.75 88.2 64.13 82.08"/><polygon class="cls-176" points="64.13 50.54 57.53 60.88 64.13 65.08 70.72 60.88 64.13 50.54"/><path class="cls-172" d="M156,143.9l7.08.37a48.11,48.11,0,0,1,.39,9.57Z" transform="translate(-103.99 -113.49)"/><polygon class="cls-173" points="59.09 30.67 64.13 30.67 59.48 40.24 59.09 30.67"/><polygon class="cls-177" points="64.13 101.5 60.18 103.11 64.13 105.93 68.07 103.11 64.13 101.5"/><polygon class="cls-178" points="64.02 113.68 61.79 114.17 62.03 120.84 64.13 119.03 66.22 120.84 66.46 114.17 64.02 113.68"/><polygon class="cls-179" points="64.13 111.44 61.79 114.17 64.13 114.17 66.46 114.17 64.13 111.44"/><polygon class="cls-180" points="64.13 119.03 58.69 123.3 64.13 124.89 69.42 123.3 64.13 119.03"/><polygon class="cls-181" points="64.06 126.5 52.19 127.67 58.75 130.17 64.13 130.17 69.5 130.17 76.06 127.67 64.06 126.5"/><polygon class="cls-182" points="76.06 127.67 64.13 124.84 52.19 127.67 64.13 127.28 64.13 127.28 76.06 127.67"/><polygon class="cls-183" points="64.13 105.93 57.85 105.93 64.13 111.44 70.4 105.93 64.13 105.93"/><polygon class="cls-184" points="64.04 137.55 57.75 140.78 64.13 156.15 70.5 140.78 64.04 137.55"/><polygon class="cls-185" points="64.13 156.15 60.43 162.56 64.13 166.43 67.8 162.4 64.13 156.15"/><polygon class="cls-186" points="64.13 166.43 60.43 162.56 64.13 173.03 67.8 162.4 64.13 166.43"/><polygon class="cls-187" points="64.13 133.44 58.25 133.44 64.04 137.55 70 133.44 64.13 133.44"/><path class="cls-188" d="M291.41,178.8,304.2,211h7.3l17.93-46.49h-9.64l-11.26,31.17-12.62-31.17h-7.56L276,195.65l-11.8-31.17H253L271,211h7.47Zm93.16,31.76a6.88,6.88,0,0,0,3.06-1.39,5.42,5.42,0,0,0,1.67-2.75,16.82,16.82,0,0,0,.49-4.46V181.87a16.82,16.82,0,0,0-.49-4.46,5.68,5.68,0,0,0-1.67-2.79,6.29,6.29,0,0,0-3.06-1.4,25.69,25.69,0,0,0-4.69-.36H350.42a25.57,25.57,0,0,0-4.68.36,6.29,6.29,0,0,0-3.07,1.4,5.67,5.67,0,0,0-1.66,2.79,16.37,16.37,0,0,0-.5,4.46V202a16.37,16.37,0,0,0,.5,4.46,5.57,5.57,0,0,0,1.62,2.75,6.52,6.52,0,0,0,3,1.39,23.3,23.3,0,0,0,4.77.41h29.46A22.87,22.87,0,0,0,384.57,210.56Zm-34.78-6.89V179.89h30.72v23.78Zm95.32.27H415.2V173h-9.37v38h39.28ZM496,179.71v-6.85H455.56V211h9.37V196.73h16.76v-7H464.93v-10ZM315.35,229.33a4.74,4.74,0,0,0,2.9-.72,2.85,2.85,0,0,0,.93-2.41v-3.87a2.93,2.93,0,0,0-.93-2.46,4.74,4.74,0,0,0-2.9-.72H300.61v16.37h3.94v-6.19h3.75l6.85,6.19h5.73l-7.78-6.19Zm-10.8-2.82V222h9.09a2.89,2.89,0,0,1,1.36.25,1.09,1.09,0,0,1,.46,1.06v1.9c0,.54-.15.9-.46,1.06a2.87,2.87,0,0,1-1.36.26Zm-13-10.95h-17.1v20h4.57v-7.78h12.53a5.31,5.31,0,0,0,3.41-.89,3.65,3.65,0,0,0,1.08-3v-4.44a3.65,3.65,0,0,0-1.08-3A5.31,5.31,0,0,0,291.59,215.56Zm0,7.15c0,.68-.17,1.11-.5,1.3a3.38,3.38,0,0,1-1.59.29H279.06V219H289.5a3.38,3.38,0,0,1,1.59.29c.33.19.5.63.5,1.3Zm52.85-2.8a2.65,2.65,0,0,0-1.32-.6,11.19,11.19,0,0,0-2-.16H328.46a11.19,11.19,0,0,0-2,.16,2.69,2.69,0,0,0-1.32.6,2.49,2.49,0,0,0-.71,1.2,7.26,7.26,0,0,0-.21,1.91v8.63a7.34,7.34,0,0,0,.21,1.92,2.43,2.43,0,0,0,.69,1.18,3,3,0,0,0,1.3.6,10.55,10.55,0,0,0,2,.17h12.65a10.25,10.25,0,0,0,2-.17,3,3,0,0,0,1.32-.6,2.47,2.47,0,0,0,.72-1.18,7.34,7.34,0,0,0,.21-1.92V223a7.26,7.26,0,0,0-.21-1.91A2.58,2.58,0,0,0,344.44,219.91Zm-3.06,12.48H328.19V222.17h13.19ZM469,229.33a4.74,4.74,0,0,0,2.9-.72,2.85,2.85,0,0,0,.93-2.41v-3.87a2.93,2.93,0,0,0-.93-2.46,4.74,4.74,0,0,0-2.9-.72H454.28v16.37h3.94v-6.19H462l6.85,6.19h5.72l-7.78-6.19Zm-10.8-2.82V222h9.1a2.87,2.87,0,0,1,1.35.25,1.09,1.09,0,0,1,.46,1.06v1.9c0,.54-.15.9-.46,1.06a2.86,2.86,0,0,1-1.35.26ZM404,222.1h7.89v13.42h4V222.1h7.93v-2.95H404Zm43.64-2.19a2.61,2.61,0,0,0-1.31-.6,11.19,11.19,0,0,0-2-.16H431.64a11.27,11.27,0,0,0-2,.16,2.61,2.61,0,0,0-1.31.6,2.43,2.43,0,0,0-.72,1.2,7.26,7.26,0,0,0-.21,1.91v8.63a7.34,7.34,0,0,0,.21,1.92,2.44,2.44,0,0,0,.7,1.18,2.87,2.87,0,0,0,1.29.6,10.62,10.62,0,0,0,2.05.17H444.3a10.25,10.25,0,0,0,2-.17,3,3,0,0,0,1.31-.6,2.32,2.32,0,0,0,.72-1.18,7.34,7.34,0,0,0,.21-1.92V223a7.26,7.26,0,0,0-.21-1.91A2.43,2.43,0,0,0,447.62,219.91Zm-3.05,12.48h-13.2V222.17h13.2Zm-45.11-12.48a2.69,2.69,0,0,0-1.32-.6,11.19,11.19,0,0,0-2-.16H383.48a11.19,11.19,0,0,0-2,.16,2.61,2.61,0,0,0-1.32.6,2.5,2.5,0,0,0-.72,1.2,7.26,7.26,0,0,0-.21,1.91v8.63a7.34,7.34,0,0,0,.21,1.92,2.52,2.52,0,0,0,.7,1.18,2.86,2.86,0,0,0,1.3.6,10.47,10.47,0,0,0,2.05.17h12.65a10.25,10.25,0,0,0,2-.17,3.1,3.1,0,0,0,1.32-.6,2.38,2.38,0,0,0,.71-1.18,7.34,7.34,0,0,0,.21-1.92V223a7.26,7.26,0,0,0-.21-1.91A2.49,2.49,0,0,0,399.46,219.91Zm-3.06,12.48H383.21V222.17H396.4Zm-34.09-3.52-8-9.72h-3.22v16.37h3.22v-11l7.39,9h.77l7.31-9.29v11.26h3.72V219.15h-3.22Z" transform="translate(-103.99 -113.49)"/></svg>