<svg
        xmlns="http://www.w3.org/2000/svg"
        xmlns:xlink="http://www.w3.org/1999/xlink"
        width="15px" height="15px">
    <path fill-rule="evenodd"  fill="rgb(49, 49, 49)"
          d="M4.425,6.075 L3.375,7.125 L6.750,10.500 L14.250,3.001 L13.200,1.950 L6.750,8.399 L4.425,6.075 ZM13.500,7.500 C13.500,10.800 10.800,13.500 7.500,13.500 C4.200,13.500 1.500,10.800 1.500,7.500 C1.500,4.199 4.200,1.500 7.500,1.500 C8.100,1.500 8.625,1.575 9.150,1.725 L10.350,0.526 C9.450,0.226 8.475,0.000 7.500,0.000 C3.375,0.000 -0.000,3.375 -0.000,7.500 C-0.000,11.625 3.375,15.000 7.500,15.000 C11.625,15.000 15.000,11.625 15.000,7.500 L13.500,7.500 Z"/>
</svg>