<svg
        xmlns="http://www.w3.org/2000/svg"
        xmlns:xlink="http://www.w3.org/1999/xlink"
        width="19px" height="24px">
    <path fill-rule="evenodd"  fill="rgb(255, 255, 255)"
          d="M18.301,24.000 L0.687,24.000 C0.307,24.000 -0.000,23.697 -0.000,23.325 L-0.000,0.675 C-0.000,0.302 0.307,0.001 0.687,0.001 L13.828,0.001 C14.011,0.001 14.185,0.071 14.314,0.197 L18.787,4.589 C18.916,4.716 18.988,4.887 18.988,5.067 L18.988,23.325 C18.988,23.697 18.681,24.000 18.301,24.000 ZM11.664,13.920 C9.800,12.542 8.254,11.151 7.467,10.414 C7.472,10.377 7.477,10.343 7.479,10.315 C7.599,9.079 7.452,8.228 7.045,7.789 C6.757,7.478 6.294,7.360 5.860,7.476 C5.586,7.546 5.080,7.808 4.916,8.345 C4.743,8.909 4.999,9.572 5.686,10.320 C5.722,10.358 5.893,10.531 6.183,10.813 C5.933,11.952 5.366,14.145 5.037,15.405 C4.317,15.797 3.713,16.263 3.242,16.794 L3.153,16.926 C3.096,17.043 2.824,17.652 3.040,18.170 C3.148,18.426 3.352,18.614 3.641,18.718 L3.702,18.733 C3.726,18.739 3.797,18.751 3.897,18.751 C4.334,18.751 5.410,18.537 5.959,16.554 L6.051,16.204 C7.736,15.430 9.818,15.175 11.294,15.099 C12.094,15.680 12.891,16.213 13.666,16.690 L13.702,16.710 C13.775,16.745 14.158,16.922 14.603,16.922 C15.306,16.922 15.817,16.503 16.008,15.765 L16.018,15.709 C16.071,15.292 15.962,14.913 15.703,14.615 C15.165,13.994 14.196,13.966 14.183,13.966 C14.067,13.957 13.442,13.906 12.509,13.906 C12.230,13.906 11.946,13.911 11.664,13.920 ZM12.872,1.606 L12.872,5.688 C12.872,5.780 12.909,5.866 12.974,5.931 C13.040,5.995 13.128,6.031 13.221,6.031 L17.380,6.031 L12.872,1.606 ZM6.416,14.801 C6.658,13.866 6.963,12.669 7.182,11.747 C7.818,12.325 8.741,13.132 9.833,13.994 L9.785,13.996 L9.860,14.050 C8.571,14.196 7.415,14.449 6.416,14.801 Z"/>
</svg>